<?xml version="1.0" encoding="UTF-8" standalone="no"?>
<!-- Created with Inkscape (http://www.inkscape.org/) -->

<svg
   xmlns:dc="http://purl.org/dc/elements/1.1/"
   xmlns:cc="http://creativecommons.org/ns#"
   xmlns:rdf="http://www.w3.org/1999/02/22-rdf-syntax-ns#"
   xmlns:svg="http://www.w3.org/2000/svg"
   xmlns="http://www.w3.org/2000/svg"
   xmlns:sodipodi="http://sodipodi.sourceforge.net/DTD/sodipodi-0.dtd"
   xmlns:inkscape="http://www.inkscape.org/namespaces/inkscape"
   width="210mm"
   height="297mm"
   viewBox="0 0 210 297"
   version="1.1"
   id="svg8"
   inkscape:version="0.92.3 (2405546, 2018-03-11)"
   sodipodi:docname="two-sphere.svg">
  <defs
     id="defs2">
    <inkscape:path-effect
       effect="bspline"
       id="path-effect983"
       is_visible="true"
       weight="33.333333"
       steps="2"
       helper_size="0"
       apply_no_weight="true"
       apply_with_weight="true"
       only_selected="false" />
    <inkscape:path-effect
       effect="bspline"
       id="path-effect979"
       is_visible="true"
       weight="33.333333"
       steps="2"
       helper_size="0"
       apply_no_weight="true"
       apply_with_weight="true"
       only_selected="false" />
    <inkscape:path-effect
       effect="bspline"
       id="path-effect975"
       is_visible="true"
       weight="33.333333"
       steps="2"
       helper_size="0"
       apply_no_weight="true"
       apply_with_weight="true"
       only_selected="false" />
    <inkscape:path-effect
       effect="bspline"
       id="path-effect971"
       is_visible="true"
       weight="33.333333"
       steps="2"
       helper_size="0"
       apply_no_weight="true"
       apply_with_weight="true"
       only_selected="false" />
    <inkscape:path-effect
       effect="bspline"
       id="path-effect967"
       is_visible="true"
       weight="33.333333"
       steps="2"
       helper_size="0"
       apply_no_weight="true"
       apply_with_weight="true"
       only_selected="false" />
  </defs>
  <sodipodi:namedview
     id="base"
     pagecolor="#ffffff"
     bordercolor="#666666"
     borderopacity="1.0"
     inkscape:pageopacity="0.0"
     inkscape:pageshadow="2"
     inkscape:zoom="1.4"
     inkscape:cx="529.72969"
     inkscape:cy="447.68482"
     inkscape:document-units="mm"
     inkscape:current-layer="layer1"
     showgrid="false"
     inkscape:window-width="958"
     inkscape:window-height="1175"
     inkscape:window-x="1080"
     inkscape:window-y="350"
     inkscape:window-maximized="0"
     inkscape:snap-global="false" />
  <metadata
     id="metadata5">
    <rdf:RDF>
      <cc:Work
         rdf:about="">
        <dc:format>image/svg+xml</dc:format>
        <dc:type
           rdf:resource="http://purl.org/dc/dcmitype/StillImage" />
        <dc:title></dc:title>
      </cc:Work>
    </rdf:RDF>
  </metadata>
  <g
     inkscape:label="Layer 1"
     inkscape:groupmode="layer"
     id="layer1">
    <rect
       style="opacity:1;fill:#6fcef0;fill-opacity:1;stroke:none;stroke-width:0.18520832;stroke-miterlimit:4;stroke-dasharray:none;stroke-dashoffset:0;stroke-opacity:1"
       id="rect896"
       width="178.53604"
       height="85.526245"
       x="25.123335"
       y="135.03467"
       inkscape:export-xdpi="400"
       inkscape:export-ydpi="400" />
    <circle
       style="opacity:1;fill:#ffad47;fill-opacity:1;stroke:none;stroke-width:0.18520832;stroke-miterlimit:4;stroke-dasharray:none;stroke-dashoffset:0;stroke-opacity:1"
       id="path959"
       cx="77.10714"
       cy="177.55952"
       r="16.252975"
       inkscape:export-xdpi="400"
       inkscape:export-ydpi="400" />
    <circle
       style="opacity:1;fill:#ffad47;fill-opacity:1;stroke:none;stroke-width:0.1822211;stroke-miterlimit:4;stroke-dasharray:none;stroke-dashoffset:0;stroke-opacity:1"
       id="path961"
       cx="158.93898"
       cy="177.37054"
       r="11.528274"
       inkscape:export-xdpi="400"
       inkscape:export-ydpi="400" />
    <path
       style="fill:none;fill-rule:evenodd;stroke:#00aa4f;stroke-width:1.565;stroke-linecap:butt;stroke-linejoin:miter;stroke-opacity:1;stroke-miterlimit:4;stroke-dasharray:none"
       d="m 24.946428,161.30655 c 11.969567,-4.28384 23.938811,-8.56757 39.057572,-9.70146 15.11876,-1.13388 33.388097,0.88204 45.98711,9.07136 12.59902,8.18932 19.52867,22.5526 21.60767,31.56096 2.079,9.00835 -0.6928,12.6621 -1.82684,16.44205 -1.13403,3.77995 -0.63011,7.68539 -0.12611,11.59137"
       id="path973"
       inkscape:connector-curvature="0"
       inkscape:path-effect="#path-effect975"
       inkscape:original-d="m 24.946428,161.30655 c 11.969511,-4.284 23.938755,-8.56773 35.907738,-12.85119 18.268627,2.01555 36.537963,4.03148 54.806544,6.04762 6.92974,14.36264 13.85939,28.72592 20.78869,43.08928 -2.77158,3.65353 -5.54338,7.30728 -8.31547,10.96131 0.50427,3.9058 1.0082,7.81124 1.5119,11.71726"
       inkscape:export-xdpi="400"
       inkscape:export-ydpi="400" />
    <path
       style="fill:none;fill-rule:evenodd;stroke:#00af4e;stroke-width:1.465;stroke-linecap:butt;stroke-linejoin:miter;stroke-opacity:1;stroke-miterlimit:4;stroke-dasharray:none"
       d="m 23.434523,191.54464 c 6.677899,-2.64596 13.355478,-5.29179 18.898896,-5.16579 5.543419,0.12601 9.953351,3.02397 16.063944,6.11075 6.110594,3.08679 13.922213,6.36263 25.513435,2.14186 11.591223,-4.22078 26.962512,-15.93824 43.215332,-24.44258 16.25282,-8.50435 33.38807,-13.79612 46.36504,-13.48113 12.97698,0.31499 21.79659,6.23673 30.61597,12.15832"
       id="path969"
       inkscape:connector-curvature="0"
       inkscape:path-effect="#path-effect971"
       inkscape:original-d="m 23.434523,191.54464 c 6.677843,-2.6461 13.355424,-5.29193 20.032737,-7.9375 4.409776,2.89742 8.819711,5.79537 13.229167,8.69345 7.811661,3.27549 15.62328,6.55133 23.434524,9.82738 15.37104,-11.71733 30.742329,-23.43478 46.113089,-35.15178 17.13486,-5.29183 34.27011,-10.5836 51.40477,-15.875 8.81954,5.92125 17.63915,11.84299 26.45833,17.76488"
       inkscape:export-xdpi="400"
       inkscape:export-ydpi="400" />
    <path
       style="fill:#000000;stroke-width:0.19528943"
       d="m 121.31642,206.2829 c -0.69661,-0.76975 -0.26001,-3.35336 0.56667,-3.35336 0.20939,0 0.18143,0.10041 -0.10872,0.39057 -0.49211,0.49211 -0.54431,2.23237 -0.0865,2.8859 0.36576,0.5222 0.0844,0.58046 -0.37137,0.0769 z m 1.38558,0.1472 c 0.14905,-0.158 0.24411,-0.81015 0.24411,-1.67467 0,-1.14246 -0.066,-1.45436 -0.34175,-1.61496 -0.18796,-0.10952 -0.25388,-0.20038 -0.14648,-0.20201 1.2122,-0.0183 1.47791,3.30311 0.29295,3.66174 -0.23641,0.0715 -0.24583,0.0388 -0.0488,-0.1701 z m -5.62964,-1.38053 c -0.34782,-0.64993 -0.0911,-1.8902 0.52417,-2.53241 0.55566,-0.57998 1.37927,-0.74578 1.76895,-0.3561 0.14709,0.1471 0.27284,-0.0497 0.42962,-0.67235 0.28971,-1.15052 0.28057,-1.29323 -0.0828,-1.29323 -0.16745,0 -0.25014,-0.0879 -0.18377,-0.19529 0.1612,-0.2608 1.07411,-0.2511 1.07411,0.0115 0,0.11372 -0.26365,1.25099 -0.58588,2.52734 -0.32222,1.27635 -0.58587,2.41364 -0.58587,2.52733 0,0.41119 0.60001,0.19496 0.78116,-0.28151 0.10212,-0.26851 0.2289,-0.48822 0.28181,-0.48822 0.20612,0 -0.23977,0.87131 -0.54415,1.06331 -0.2313,0.1459 -0.43903,0.13025 -0.73645,-0.0555 -0.29714,-0.18557 -0.47403,-0.19898 -0.6256,-0.0474 -0.11623,0.11624 -0.29349,0.21134 -0.39389,0.21134 -0.10042,0 0.04,-0.17513 0.31217,-0.38917 0.51776,-0.40727 1.06302,-2.09399 0.85346,-2.64009 -0.17662,-0.46027 -1.05111,-0.3519 -1.39495,0.17286 -0.44091,0.67292 -0.6219,2.45554 -0.2718,2.6772 0.22096,0.13989 0.20916,0.1738 -0.0613,0.17621 -0.18418,10e-4 -0.43573,-0.18544 -0.55897,-0.41575 z m -38.414086,-8.04338 -0.835945,-0.43759 0.889991,-0.43239 c 1.082739,-0.52603 1.074829,-0.52572 1.074829,-0.0417 0,0.3893 0.130194,0.39057 39.552401,0.39057 38.70444,0 39.55541,-0.008 39.69259,-0.37172 0.13565,-0.35972 0.16827,-0.35735 1.01022,0.0732 l 0.87005,0.44496 -0.81345,0.41499 c -0.99007,0.5051 -0.95538,0.50432 -1.08088,0.0245 -0.10167,-0.38896 -0.26638,-0.39058 -39.66654,-0.39058 -39.434197,0 -39.564391,0.001 -39.564391,0.39058 0,0.4845 -0.08959,0.47937 -1.128875,-0.0647 z m -4.17697,-2.85595 c -5.387675,-0.98746 -9.931475,-4.31852 -12.264764,-8.9913 -1.364071,-2.73175 -1.780139,-4.53547 -1.779559,-7.71468 0.0015,-8.24719 6.138184,-15.37564 14.227076,-16.52634 1.830141,-0.26035 5.178899,-0.10088 6.783053,0.32294 1.884523,0.49793 4.939558,2.08713 6.439435,3.34974 3.932594,3.31048 6.036244,7.83353 6.023604,12.95131 -0.019,7.6726 -4.737795,13.95486 -12.112184,16.12517 -1.885907,0.55503 -5.589988,0.79963 -7.316661,0.48316 z m 7.028494,-1.36233 c 2.972047,-0.85866 5.977117,-2.85391 8.025451,-5.32854 1.22275,-1.47725 2.61241,-4.23783 3.07537,-6.10932 0.4941,-1.99736 0.45008,-5.95449 -0.0883,-7.93725 -1.0022,-3.69088 -3.454723,-7.03324 -6.780685,-9.24088 -4.947578,-3.28403 -12.142462,-3.29379 -17.062188,-0.0232 -1.811062,1.20398 -1.941917,1.37842 -1.444487,1.92561 0.216833,0.23852 2.690108,2.93121 5.496167,5.98375 2.80606,3.05254 5.055438,5.59656 4.998623,5.65338 -0.134141,0.13413 -0.339473,-0.0804 -6.144174,-6.41887 -2.705007,-2.95375 -4.989989,-5.39704 -5.07774,-5.42953 -0.319062,-0.11815 -2.750217,3.02837 -3.516113,4.55073 -1.17459,2.33471 -1.590452,4.19851 -1.590452,7.12807 0,4.6625 1.376918,7.96944 4.667937,11.21096 2.29116,2.25672 4.771247,3.62931 7.761612,4.29563 1.917572,0.42729 5.748033,0.2973 7.678976,-0.26058 z M 63.75835,176.34202 c -0.586373,-1.09565 0.449036,-3.09648 1.602394,-3.09648 0.295793,0 0.589746,0.084 0.653229,0.18676 0.06348,0.10269 0.244431,0.13726 0.402105,0.0768 0.32972,-0.12653 0.386524,0.41874 0.118723,1.13961 -0.09238,0.24867 -0.228179,0.78168 -0.301783,1.18446 -0.108208,0.59212 -0.07513,0.73233 0.172791,0.73233 0.168639,0 0.390146,-0.21969 0.492239,-0.48823 0.10209,-0.26851 0.228905,-0.48822 0.281807,-0.48822 0.206128,0 -0.239767,0.87131 -0.544154,1.06331 -0.231297,0.1459 -0.439028,0.13025 -0.736449,-0.0555 -0.297141,-0.18558 -0.474031,-0.19898 -0.625601,-0.0474 -0.116229,0.11623 -0.293479,0.21132 -0.393892,0.21132 -0.100418,0 0.04007,-0.17512 0.312174,-0.38916 0.51776,-0.40727 1.063025,-2.09398 0.853463,-2.64009 -0.176618,-0.46026 -1.051118,-0.3519 -1.39495,0.17286 -0.440917,0.67293 -0.621896,2.45554 -0.271801,2.6772 0.220954,0.1399 0.209161,0.17379 -0.06132,0.1762 -0.184188,0.001 -0.43573,-0.18544 -0.558984,-0.41574 z m 4.439346,0.0615 c -0.614677,-0.67921 -0.245338,-2.19423 0.695584,-2.85328 0.453459,-0.31761 1.461489,-0.40305 1.832498,-0.15534 0.32839,0.21928 0.663926,0.94569 0.663926,1.43735 0,0.43186 0.0064,0.43311 0.313535,0.0616 0.287854,-0.34804 0.287854,-0.33566 0,0.15108 -0.172443,0.29161 -0.313535,0.76323 -0.313535,1.04806 0,0.42184 0.07248,0.49891 0.390849,0.41565 0.214967,-0.0563 0.341601,-0.0225 0.281409,0.0748 -0.169875,0.27486 -0.793382,0.20882 -1.059858,-0.11224 -0.21213,-0.25561 -0.288312,-0.25561 -0.653234,0 -0.227204,0.15913 -0.547335,0.2892 -0.711401,0.28904 -0.164067,-1.7e-4 0.0093,-0.15396 0.38521,-0.34176 0.618475,-0.30896 0.68915,-0.42909 0.742764,-1.26244 0.07702,-1.19731 -0.218021,-1.75808 -0.883053,-1.6783 -0.664298,0.0797 -1.228172,0.86821 -1.368385,1.91358 -0.09096,0.6781 -0.0427,0.89424 0.246917,1.10601 0.288137,0.21068 0.300103,0.26321 0.05997,0.26321 -0.164997,0 -0.445434,-0.16071 -0.623195,-0.35714 z m 3.783858,-2.08398 c 0,-0.10736 0.08519,-0.32711 0.189308,-0.48822 0.104114,-0.16111 0.189308,-0.20506 0.189308,-0.0977 0,0.10735 -0.08519,0.3271 -0.189308,0.48822 -0.104115,0.16111 -0.189308,0.20506 -0.189308,0.0977 z m 83.577906,15.21472 c -4.15668,-1.10331 -7.77892,-4.8287 -8.81217,-9.0631 -0.36769,-1.50685 -0.31395,-4.69385 0.10542,-6.24927 0.96225,-3.56917 3.91719,-6.85785 7.4391,-8.27927 3.55815,-1.43606 8.09539,-0.95847 11.37209,1.19703 1.36994,0.90119 3.35303,3.07455 4.12227,4.51776 1.88417,3.53507 1.8441,8.4139 -0.0979,11.91861 -1.49585,2.69957 -4.70053,5.20761 -7.61479,5.95947 -1.5166,0.39126 -5.03778,0.3906 -6.514,-0.001 z m 5.56574,-0.76416 c 2.23546,-0.46934 4.07384,-1.49301 5.78965,-3.22383 2.3198,-2.34011 3.29131,-4.70283 3.29131,-8.00445 0,-3.3133 -0.98366,-5.69975 -3.2962,-7.99694 -2.42328,-2.40716 -4.6942,-3.35531 -8.03629,-3.35531 -1.04967,0 -2.2907,0.10178 -2.75783,0.22626 -0.91083,0.24267 -2.70458,0.9693 -2.70458,1.09561 0,0.0422 1.40609,2.18303 3.12464,4.75756 1.71855,2.57454 3.12463,4.78515 3.12463,4.91247 0,0.12732 -1.4492,-1.91427 -3.22043,-4.53689 -1.77124,-2.6226 -3.3072,-4.79729 -3.41326,-4.83263 -0.34947,-0.11649 -2.36076,1.60357 -3.27066,2.7971 -1.11999,1.4691 -1.74695,2.81377 -2.1093,4.52391 -1.71206,8.08038 5.44662,15.32342 13.47832,13.63714 z m -8.70545,-13.20933 c -0.58636,-1.09564 0.44904,-3.09648 1.60241,-3.09648 0.29578,0 0.58974,0.084 0.65322,0.18677 0.0634,0.10269 0.24442,0.13725 0.4021,0.0768 0.32972,-0.12653 0.38653,0.41874 0.11873,1.13962 -0.0923,0.24865 -0.22818,0.78167 -0.30179,1.18445 -0.10815,0.59212 -0.0751,0.73233 0.17279,0.73233 0.16864,0 0.39016,-0.2197 0.49225,-0.48821 0.10212,-0.26853 0.2289,-0.48823 0.28181,-0.48823 0.20612,0 -0.23977,0.87131 -0.54416,1.06332 -0.2313,0.14588 -0.43902,0.13023 -0.73646,-0.0555 -0.29714,-0.18556 -0.47402,-0.19897 -0.62559,-0.0474 -0.11623,0.11622 -0.29348,0.21132 -0.39389,0.21132 -0.10042,0 0.04,-0.17512 0.31217,-0.38916 0.51777,-0.40727 1.06302,-2.09398 0.85346,-2.6401 -0.17661,-0.46026 -1.05112,-0.3519 -1.39494,0.17286 -0.44092,0.67292 -0.6219,2.45554 -0.27181,2.6772 0.22095,0.1399 0.20916,0.1738 -0.0613,0.17621 -0.18419,10e-4 -0.43574,-0.18544 -0.55899,-0.41574 z m -57.595321,1.98105 c 0,-0.36454 0.1302,-0.39059 1.95291,-0.39059 1.82269,0 1.95289,0.026 1.95289,0.39059 0,0.36454 -0.1302,0.39058 -1.95289,0.39058 -1.82271,0 -1.95291,-0.026 -1.95291,-0.39058 z m 7.811591,0 c 0,-0.36454 0.13019,-0.39059 1.95288,-0.39059 1.82271,0 1.9529,0.026 1.9529,0.39059 0,0.36454 -0.13019,0.39058 -1.9529,0.39058 -1.82269,0 -1.95288,-0.026 -1.95288,-0.39058 z m 7.81157,0 c 0,-0.36454 0.13019,-0.39059 1.9529,-0.39059 1.8227,0 1.95289,0.026 1.95289,0.39059 0,0.36454 -0.13019,0.39058 -1.95289,0.39058 -1.82271,0 -1.9529,-0.026 -1.9529,-0.39058 z m 7.90922,0.19529 c -0.27266,-0.44119 0.21248,-0.58588 1.96443,-0.58588 1.71352,0 1.84371,0.0276 1.84371,0.39059 0,0.36299 -0.13019,0.39058 -1.84371,0.39058 -1.0185,0 -1.89775,-0.0875 -1.96443,-0.19529 z m 7.90923,-0.19529 c 0,-0.38558 0.0901,-0.40208 1.90407,-0.34883 1.53747,0.0452 1.90407,0.11225 1.90407,0.34883 0,0.23653 -0.3666,0.3037 -1.90407,0.34882 -1.81403,0.0532 -1.90407,0.0367 -1.90407,-0.34882 z m 7.81157,0 c 0,-0.36454 0.1302,-0.39059 1.9529,-0.39059 1.8227,0 1.95289,0.026 1.95289,0.39059 0,0.36454 -0.13019,0.39058 -1.95289,0.39058 -1.8227,0 -1.9529,-0.026 -1.9529,-0.39058 z m 7.81158,0 c 0,-0.36454 0.13019,-0.39059 1.9529,-0.39059 1.8227,0 1.95289,0.026 1.95289,0.39059 0,0.36454 -0.13019,0.39058 -1.95289,0.39058 -1.82271,0 -1.9529,-0.026 -1.9529,-0.39058 z m -37.10499,-7.02796 v -0.58833 h -4.19872 c -3.602011,0 -4.198731,-0.0416 -4.198731,-0.29294 0,-0.2513 0.59672,-0.29293 4.198731,-0.29293 h 4.19872 v -0.58586 c 0,-0.32223 0.0462,-0.58588 0.10258,-0.58588 0.19028,0 2.86748,1.39152 2.79801,1.45432 -0.0379,0.0342 -0.70597,0.3812 -1.48468,0.77107 l -1.41586,0.70887 z m -1.09949,-5.47056 c 0,-1.12779 0.0323,-1.58917 0.0718,-1.02527 0.0395,0.5639 0.0395,1.48663 0,2.05054 -0.0395,0.56389 -0.0718,0.10257 -0.0718,-1.02527 z m 0.97645,0 c 0,-1.12779 0.0323,-1.58917 0.0718,-1.02527 0.0395,0.5639 0.0395,1.48663 0,2.05054 -0.0395,0.56389 -0.0718,0.10257 -0.0718,-1.02527 z m -5.182771,-1.66573 c -0.63395,-0.34428 -1.03082,-1.40006 -0.77644,-2.06546 0.31233,-0.81697 0.96876,-1.24869 1.898601,-1.24869 0.96204,0 1.57198,0.46133 1.67829,1.26938 0.0624,0.47421 0.0264,0.48987 -1.25396,0.54596 -1.250121,0.0548 -1.318201,0.0822 -1.318201,0.53255 0,0.9687 1.658071,1.3665 2.136021,0.51245 0.098,-0.17508 0.25065,-0.24558 0.33926,-0.15667 0.0886,0.0889 -0.0464,0.32984 -0.29991,0.53541 -0.54786,0.44415 -1.66008,0.47889 -2.403661,0.0751 z m 2.060101,-1.81157 c 0.18654,-0.30184 -0.38031,-1.1125 -0.82218,-1.17582 -0.58012,-0.0831 -1.009631,0.2865 -1.009631,0.86889 0,0.41919 0.0843,0.4643 0.867271,0.4643 0.477,0 0.91104,-0.0707 0.96454,-0.15737 z m 60.05254,-0.14271 c 0.98933,-1.05759 1.19413,-1.39324 1.19413,-1.95707 0,-0.53641 -0.10338,-0.72768 -0.48822,-0.90302 -0.66493,-0.30296 -1.62861,0.0909 -1.27244,0.52008 0.24115,0.29056 0.12001,0.68721 -0.20988,0.68721 -0.41782,0 -0.4022,-0.62719 0.0271,-1.08403 0.60673,-0.64584 1.59895,-0.64537 2.24537,7.4e-4 0.26365,0.26363 0.47935,0.59561 0.47935,0.7377 0,0.49865 -0.78798,1.39941 -2.13313,2.43842 -0.254,0.1962 -0.13078,0.23899 0.70297,0.24411 0.80182,0.006 1.02942,-0.0645 1.10026,-0.33554 0.0491,-0.18797 0.0995,-0.0562 0.11201,0.29293 l 0.0226,0.63469 h -1.48706 -1.48706 z m -7.59389,-0.18418 c 0,-0.0515 0.13948,-0.44228 0.30995,-0.86835 0.17047,-0.42606 0.51114,-1.76801 0.75703,-2.98212 0.40571,-2.00321 0.41781,-2.21827 0.13074,-2.32433 -0.24595,-0.0909 -0.17758,-0.18863 0.30737,-0.43941 0.85623,-0.44277 0.90023,-0.42047 0.75001,0.38019 l -0.13182,0.70273 0.77254,-0.62083 c 0.45947,-0.36924 1.08625,-0.66291 1.54662,-0.72466 1.90989,-0.25617 2.20975,1.20695 0.48723,2.37744 -0.39819,0.27058 -0.61169,0.49194 -0.47447,0.49194 0.51677,0 1.20819,0.94116 1.20819,1.64459 0,1.62698 -3.05996,3.12484 -4.42727,2.16715 -0.36492,-0.2556 -0.4411,-0.2556 -0.65323,0 -0.2289,0.2758 -0.58289,0.39463 -0.58289,0.19566 z m 4.40288,-0.97153 c 0.94203,-0.94201 0.41994,-2.19681 -1.08296,-2.60281 l -0.68351,-0.18464 1.22357,-0.54162 c 0.9252,-0.40955 1.25383,-0.66216 1.34764,-1.03595 0.15733,-0.62685 -0.55333,-1.28428 -1.18258,-1.09404 -1.03328,0.31239 -1.76199,1.42967 -2.45647,3.76631 -0.23552,0.79242 -0.48155,1.58334 -0.54673,1.7576 -0.10405,0.27823 -0.0772,0.28319 0.22078,0.0407 0.29491,-0.24002 0.38182,-0.23363 0.66428,0.0489 0.51729,0.51728 1.91051,0.43111 2.49598,-0.15437 z m -78.612871,-1.6478 c 0.469988,-0.13029 0.490322,-0.20251 0.544376,-1.93342 l 0.05615,-1.79808 -0.544373,-0.009 c -0.492339,-0.008 -0.469704,-0.0355 0.236782,-0.28999 0.429637,-0.15477 0.803128,-0.28275 0.829982,-0.28436 0.02685,-0.001 0.04882,0.92263 0.04882,2.05389 0,1.95049 0.02272,2.06597 0.439402,2.23345 0.327234,0.13153 0.115365,0.17481 -0.82998,0.16953 -0.821661,-0.005 -1.097181,-0.0548 -0.781159,-0.14244 z m -7.225707,-1.28642 c 0,-0.0515 0.139478,-0.44229 0.309952,-0.86835 0.170475,-0.42606 0.511139,-1.76801 0.757033,-2.98212 0.40571,-2.00321 0.41781,-2.21827 0.13074,-2.32433 -0.245962,-0.0909 -0.177582,-0.18864 0.307361,-0.4394 0.856236,-0.44278 0.900228,-0.42048 0.750021,0.38018 l -0.13183,0.70273 0.772548,-0.62084 c 0.459463,-0.36922 1.086248,-0.66291 1.546616,-0.72466 1.909899,-0.25616 2.20975,1.20697 0.487227,2.37745 -0.398183,0.27057 -0.611694,0.49195 -0.474469,0.49195 0.516776,0 1.208193,0.94115 1.208193,1.64457 0,1.62699 -3.059968,3.12485 -4.427269,2.16715 -0.364921,-0.25559 -0.441104,-0.25559 -0.653235,0 -0.228895,0.27581 -0.582888,0.39463 -0.582888,0.19567 z m 4.402887,-0.97154 c 0.94202,-0.94201 0.419931,-2.19679 -1.082967,-2.6028 l -0.683514,-0.18466 1.223572,-0.54161 c 0.925208,-0.40954 1.253829,-0.66216 1.347646,-1.03594 0.157326,-0.62685 -0.553323,-1.28428 -1.182589,-1.09404 -1.033274,0.31239 -1.761991,1.42967 -2.456468,3.7663 -0.235515,0.79242 -0.481542,1.58335 -0.546729,1.75761 -0.104069,0.27823 -0.07715,0.28318 0.22078,0.0407 0.294905,-0.24001 0.38182,-0.23363 0.664278,0.0488 0.517284,0.51729 1.910509,0.43113 2.495991,-0.15436 z"
       id="path898"
       inkscape:connector-curvature="0"
       inkscape:export-xdpi="400"
       inkscape:export-ydpi="400" />
    <path
       style="fill:none;fill-rule:evenodd;stroke:#00a84f;stroke-width:1.765;stroke-linecap:butt;stroke-linejoin:miter;stroke-opacity:1;stroke-miterlimit:4;stroke-dasharray:none"
       d="m 36.66369,221.78274 c 6.299737,-15.24536 12.59934,-30.4904 14.678148,-45.04229 2.078807,-14.55188 -0.0631,-28.4113 -2.204935,-42.27021"
       id="path965"
       inkscape:connector-curvature="0"
       inkscape:path-effect="#path-effect967"
       inkscape:original-d="m 36.66369,221.78274 c 6.299867,-15.24531 12.599472,-30.49035 18.898809,-45.73512 -2.141556,-13.8591 -4.283466,-27.71852 -6.425596,-41.57738"
       inkscape:export-xdpi="400"
       inkscape:export-ydpi="400" />
    <path
       style="fill:none;fill-rule:evenodd;stroke:#00a850;stroke-width:1.365;stroke-linecap:butt;stroke-linejoin:miter;stroke-opacity:1;stroke-miterlimit:4;stroke-dasharray:none"
       d="m 133.42559,134.47024 c 14.23727,4.40977 28.47437,8.81949 37.79765,17.57576 9.32328,8.75627 13.73305,21.8596 6.74057,32.317 -6.99249,10.4574 -25.38711,18.26881 -41.26222,23.93851 -15.87512,5.66969 -29.23005,9.19741 -42.585521,12.72527"
       id="path977"
       inkscape:connector-curvature="0"
       inkscape:path-effect="#path-effect979"
       inkscape:original-d="m 133.42559,134.47024 c 14.23737,4.40945 28.47447,8.81918 42.71131,13.22916 4.40994,13.10276 8.81971,26.20609 13.22917,39.30953 -18.3948,7.81134 -36.78942,15.62275 -55.18453,23.43452 -13.35512,3.52757 -26.71005,7.05529 -40.065471,10.58333"
       inkscape:export-xdpi="400"
       inkscape:export-ydpi="400" />
    <path
       style="fill:none;fill-rule:evenodd;stroke:#00ab4f;stroke-width:1.365;stroke-linecap:butt;stroke-linejoin:miter;stroke-opacity:1;stroke-miterlimit:4;stroke-dasharray:none"
       d="m 203.72916,197.59226 c -11.71695,2.01582 -23.43422,4.0317 -32.06477,7.87442 -8.63054,3.84272 -14.17405,9.51222 -19.71796,15.18213"
       id="path981"
       inkscape:connector-curvature="0"
       inkscape:path-effect="#path-effect983"
       inkscape:original-d="m 203.72916,197.59226 c -11.71699,2.01561 -23.43426,4.03148 -35.15178,6.04762 -5.54353,5.66952 -11.08704,11.33902 -16.63095,17.00893"
       inkscape:export-xdpi="400"
       inkscape:export-ydpi="400" />
  </g>
</svg>
